<?xml version="1.0" encoding="UTF-8"?>
<svg id="Warstwa_1" data-name="Warstwa 1" xmlns="http://www.w3.org/2000/svg" version="1.1" viewBox="0 0 445.2 204.2">
  <defs>
    <style>
      .cls-1 {
        fill: #fff;
        stroke-width: 0px;
      }
    </style>
  </defs>
  <g>
    <path class="cls-1" d="M85.3,115.3c-2.5,2-3.7,1-6.9,2.9-3.1,2.3-6.1,3.5-9,4.5-2.9,1.4-5.3,2-9.2,4.3-4.3,2.2-8,3.5-13.5,5.3-5.5,2.2-14.5,3.9-21.5,3.9s-10.2-1.8-13.3-3.1c-2.5-1.2-6.7-3.7-9.2-8.4C.4,120.4,0,117.3,0,113.9s.2-4.7.2-7.8c0-7.2,3.1-11.7,6.5-16.2,3.1-5.1,4.5-8,9.8-12.7,5.3-4.9,6.5-2.9,9.2-5.3,2.7-2.3,6.7-5.1,9.2-6.5,5.3-2,11.2-5.3,15.1-7,2.2-.8,3.3-1.6,3.3-2.5s-.8-1.4-2.5-2.3c-3.9-2.2-9.6-6.9-9.6-13.3s1-6.3,2.3-8.6c1.2-2.7,1.8-6.5,5.9-9.4,3.9-3.1,6.1-6.9,16.8-11.4,9-3.9,20.9-5.1,30.9-5.1s4.7,0,6.9.2c1.6.2,2.7.4,4.1.8,3.3-1.6,2.3-1.6,6.7-3.3,4.1,0,9.4-3.3,14.3-3.3s4.3,1.6,4.3,3.1-.6,2.7-1.4,4.1c-.4.6-.8.8-1.2.8-1.2,0-2.5-2.3-5.5-2.3-4.5,0-7.2,0-12.3,2.7l-.8.4c3.7,2.5,5.1,6.3,5.1,8.4,0,3.3-2.9,8.2-4.1,10.4-1.4,1.8-2.5,2-4.3,5.5-1.2,3.5-4.7,3.9-8.6,6.8-3.1,2.3-6.3,4.3-9.8,4.3s-2,0-2.9-.4c-4.3-1-5.7-5.7-5.7-9.4s1.6-6.1,3.1-9.6c1.4-3.5,2-2.7,4.3-4.3,2.7-1.6,3.1-3.7,6.5-6.7,1.8-1.6,3.7-2.9,5.9-4.1-1.8-.2-3.5-.4-5.1-.4-15.7,0-18.8,1.8-25,5.9-6.3,4.1-10.4,9.2-11.7,13.5-1,2.9-1.8,6.3-1.8,10s.2,4.1.8,6.1c1.4,6.3,2.5,7.2,5.7,9.4,1.2,0,2.9,1.4,4.5,1.4s3.7-.4,5.5-.4,1.2.2,1.8.2c2.9.6,4.7,1.8,4.7,3.1s0,.6-.2.8c-1,1.6-5.1,2.3-9.2,2.3s-7.2-1.4-10.8-1.4-6.3.8-10.6,2.3c-5.3,2.2-9.2,8-16.8,15.5-7.4,7.2-12.3,13.1-13.9,19-1.8,6.1-2.9,7-3.3,10.8-.2,2.3-.4,4.3-.4,6.1,0,2.9.6,5.9,2.2,8.4,4.1,6.7,6.7,6.7,12.9,6.7s9.6-.2,16.6-2.2c7-2.2,12.3-4.7,15.1-5.3,4.1-1.4,8-3.9,12.9-5.5,4.7-2,10.4-5.3,14.5-7.8,1.4-.8,6.9-3.3,7.8-4.1,1.6-1,4.9-3.3,6.1-3.9,2-1,2.3-1.4,4.3-2.5.2-.4,2.3-1.4,3.3-2,.4-.4,1.6-.8,2.2-1,1.2,0,1.8.2,2.2.6.6.4.6,1,.6,1.4-.2.6-.8,1.4-1.6,2-2.3,1.4-4.3,2-6.5,3.1l-7.6,4.9c-1.4,1.2-3.1,2.5-4.9,2.7-3.1,1-9.6,5.3-10.4,5.9l-.3-.2ZM105.9,11.2c-.8.4-1.8.8-2.9,1.6-3.5,2.5-3.7,4.3-6.3,6.9-2.7,2.5-2.3,4.9-4.5,9.4-1.2,2.2-1.6,4.1-1.6,5.7s.6,3.5,1.6,4.7c.4.4,1,.6,1.6.6,1.8,0,4.3-2.2,6.7-4.3,4.1-3.5,5.9-4.7,7.6-7.2,1.8-2.7,2.9-6.3,2.9-9.4s-2.2-6.5-5.1-7.8v-.2Z"/>
    <path class="cls-1" d="M164.6,120c-2.5,1.4-6.3,3.3-9,3.7-2.7.4-5.9,1.8-11,1.8s-11-5.5-11-12.3,1.4-9,2.5-14.3c.8-3.7,4.5-9.8,6.7-13.9l-2,1.4c-2,1.2-6.7,3.5-8.2,3.7l-8.4,3.7c-1.8.8-3.1,1.6-5.1,2.2-.6.2-2.3,1.2-3.1,1.2-1.4,0-2.5-.8-2.7-1.6,0-.8,1.2-1.4,2.7-2,.8-1,1.6-1.2,2-1.2,2.2-.4,4.5-1.6,4.9-2.2.6-.4,4.3-2.3,7.4-3.7,1.6-.4,4.5-2.2,5.9-2.5,1.8-.4,3.9-1.8,6.1-2.7,1.4-.6,2.2-.6,3.3-1.4,1.8-6.5,6.5-12.1,10.2-18.2,2.3-3.9,4.7-6.1,7.2-9.4,2.7-3.5,4.5-7.4,7.4-10.2,2.2-2.7,5.5-4.9,7.2-5.9,2-1,3.7-6.5,7.4-9,3.9-2.5,5.7-6.3,8.4-7,2.3-1,5.7-5.1,9.6-7.6,3.9-2.7,8.8-5.3,13.1-5.3s7.4,1.6,7.4,4.5-.2,2.7-1.2,5.3c-1,2.2-2.2,5.1-3.5,6.9-1.2,1.6-2.7,3.9-4.3,5.9-1.6,2.2-3.1,3.7-4.5,5.5-1.6,1.6-2.5,3.7-5.1,5.1-2.5,1.4-2.5,2.9-4.5,4.1-1.8,1.6-5.9,6.3-7.8,8-1.6,2-3.7,2.9-5.1,4.3-1.4,1.4-3.3,3.5-5.1,4.9-2.2,1.2-4.3,2.7-5.7,4.1-1.2,1.4-6.1,4.3-9.2,6.1-1.6.8-5.1,2.3-5.1,2.3-2.3,4.5-5.3,9.2-6.7,11.9-2.5,5.1-2.9,9.4-4.1,12.1-.8,2.5-.6,4.9-2.2,7.6-1.6,2.5-1.6,5.5-1.6,8.2s1.4,3.3,5.3,3.3,3.9-.6,6.1-1.2c1.8-.6,5.1-1.4,7.6-2,2.5-.8,5.5-3.9,8.2-4.1s4.7-2,6.1-2.7c2.2-1.2,4.9-1.4,6.7-2.7,1.2-1,7-2.3,8-3.1,1.2-1,3.7-1.4,5.1-2,1.4-.6.2-.4,2.9-1.6,1.6-.6,3.9-1.8,5.5-2.9.6-.6,1.8-1,2.7-1s2.2.6,2.2,1.6-.4,1-.8,1.6c-1.8,2-4.9,2.2-7,3.7-2.7,2-5.5,2-8.6,4.1-1.6,1-3.3,1.6-4.9,2-2.5.8-4.7,1.2-5.1,1.8-1.2,1.4-6.7,3.3-9,4.3-2.2,1-11.9,5.3-14.5,6.8h.3ZM171.8,65c1.6-1.4,3.9-2.2,5.7-4.1,1.6-2.3,3.9-3.7,5.7-5.3,1.6-1.2,4.9-4.1,5.9-4.5,1.2-.4,1.4-1.8,3.7-4.5,2.5-2.7,4.9-4.7,7-7.2,2.2-2.7,2.9-4.1,4.7-5.1,2-.8,2.7-3.3,4.1-4.7,1.2-1.2,3.9-4.3,5.1-6.3s1.8-2.9,1.8-4.5-.6-1.8-2.3-1.8-4.1,2.3-6.1,4.3-3.9,4.9-5.1,4.9-2.7,2.3-4.3,3.9c-1.8,1.8-2.2,3.3-4.9,5.3-2.3,2-5.9,6.9-7.8,8.4-1.8,2-2.9,3.9-7,7.8-4.3,4.1-5.3,7-6.1,8.2-.8,1.4-2.5,4.3-5.5,8.6,0,0,3.9-2,5.5-3.5h0Z"/>
    <path class="cls-1" d="M251.1,114.5c-3.1,0-5.3.2-5.3,1.6s.8,1.4,1.2,4.3c.4,3.5.4,6.3.4,9.6s.2,2.7.2,3.7-.2,2.3-.6,3.9c-.6,2.7-1.6,4.9-3.1,7-2,2.7-.4,4.9-1.8,6.7-1.4,2-2.5,5.1-4.1,7.4-1.6,2.2-1.2,3.9-3.3,5.9-2.3,2.2-4.5,2.5-5.9,3.3-1.4.6-4.3,2.2-6.9,2.2s-.8-.2-1.2-.2c-2.3-.6-6.9-4.7-6.9-10.6s0-11.4,2.3-15.9c2.5-4.7.8-3.9,2.5-7.4,1.8-3.5,2.2-3.1,2.2-5.5s6.1-10.4,7-12.3c.4-1.2,1-3.7,1-5.5s0-1.6-.4-2c-.8-.8-1.6-2.5-1.6-4.5s.2-2.2,1-3.1c1-1.4,2.7-1.8,4.1-1.8s2,.2,2.5.2.8.2,1.2.2c.6,0,1-.6,2.3-2.2.8-1,2-4.9,5.1-8.4,2.5-2.7,6.3-8.2,6.9-10-2.3,1.4-10.2,4.5-12.1,5.9-2.2,1.2-7,3.5-8.4,3.7-2.9.4-11.5,5.1-13.7,6.1-.2.2-2,1.2-3.1,1.2s-2.2-.8-2.3-1.8c0-.8,1-1.2,2.3-2,1.2-.8,1.8-.8,2.5-1.2,2-.2,4.1-1.4,4.5-2,.8-.8,4.3-2.5,13.3-6.5,1.6-.6,3.9-1.8,6.1-2.7s2.9-.4,5.1-2c.8-.6,5.3-2.9,10.4-5.5,0,0,4.5-7.4,5.9-9.2,1.6-1.8,5.3-6.5,5.9-8,.6-1.8,2.7-3.9,3.5-4.3,1-.6,3.1-5.1,6.9-10.8,3.7-6.1,9-9.8,12.1-13.9s4.5-5.5,4.9-6.1c1.6-2.3,3.5-2.2,5.7-4.7,2.2-2.7,11-7.4,13.7-9.2,1.8-1.4,5.1-2,7.8-2s2.3,0,3.1.4c2,.8,3.9,3.3,4.3,5.9,0,.6.2,1.4.2,2.5,0,2.2-.4,4.9-2,6.3-2.5,2.3-3.3,4.5-5.3,6.9-2.3,2.5-3.5,4.7-5.9,6.3-2.3,1.8-1.4,2.3-3.1,4.1-1.4,1.4-7.4,6.1-10,8.2-2,1.8-4.5,3.7-6.5,6.1-2.3,2.2-6.3,4.5-8.4,5.9-1.8,1.6-5.7,3.9-7.2,5.3-2.9,2.3-6.9,5.1-10.4,6.5-1,1.6-3.3,4.9-3.9,6.1-.8,1.6-3.1,4.5-4.3,6.5-1.2,2-3.3,4.7-4.9,7.2-1,1.4-3.3,5.9-5.5,9.6-2.5,4.3-3.9,6.9-3.9,7.6,1.2.6,4.7,1.8,7.6,1.8s6.1,0,7.8-.4c2.7-.8,5.3-.8,6.7-1.6,2.2-1,4.9-.2,6.8-1.8,1.2-.8,8.4-2.5,9.4-3.3s3.5-1.2,5.1-1.8c1.2-.6.2-.4,2.7-1.8,1-.4,3.1-1,3.5-1.4.6-.2,2-.8,2.7-1.6.6-.4,2-1,2.9-1s1,.2,1.4.6c.6.6.8,1,.8,1.4,0,.8-.8,1.2-1,1.4-2.3,1.6-5.1,2.2-7.6,4.1-2.5,2-5.5,1.4-8.8,3.5-1.4,1-4.9,1.6-6.3,2-2.5,1-4.5,1.2-4.9,1.6-1.4,1.8-7.8,2.7-10,3.5-2.7.8-12.3,1.6-15.3,1.6l.4.2ZM242.6,136.6c.2-1.8,1.2-5.3,1.2-7.8s-1.6-10.2-3.5-13.1c-.4,0-1.4,2.3-3.1,5.5-1.8,2.9-2.7,8.4-3.5,10.2s-.4,4.5-1.4,6.3c-1.4,2-1.8,5.7-2.7,8-1,2-2.5,7.2-3.3,11.2,0,.4-.2,1.2-.2,2,0,1.8.4,3.5,2.3,3.5,2-.2,5.7-2.9,6.9-5.5,2.7-6.1,6.1-12.7,7.4-20.2h0ZM276.1,62.6c2.5-2,5.3-3.9,6.1-4.3,1.4-1,8-6.8,9.6-7,1.4-.2,4.1-4.1,4.9-4.7.6-.6,3.1-4.1,5.3-5.7,2.2-1.4,4.9-3.9,6.3-5.5,1.8-2,4.7-4.1,6.3-6.1,1.6-1.8,3.5-5.3,4.7-6.5,1.4-1.4,2.7-5.5,2.7-5.7,0-1.2-1.4-2.9-2.5-2.9s-5.9,2.7-7.8,4.7c-2,2.2-6.3,6.1-8.2,8.4-2.2,2.7-4.3,7-6.3,7.6-1.8.4-2.3,2-3.7,3.7-1.4,1.8-3.5,5.1-4.7,6.7-1,1.2-6.5,8.4-9,12.1-1,1.2-2.3,3.1-3.5,5.1h-.2Z"/>
    <path class="cls-1" d="M305.6,96.9c-.6.2-2.5,1.2-3.1,1.2-1.4,0-2.7-.8-2.7-1.8s1.4-1.2,2.7-2c.6-.8,1.4-.8,2.2-1.2,1.8-.2,4.3-1.4,4.7-2,.6-.8,3.7-2.3,8.2-4.1,6.7-2.5,9-4.1,11-5.1,2.3-1.2,3.1-.4,5.3-2,.8-.4,2.9-.8,6.1-2.3,4.1-1.8,4.7-2.2,5.9-2.7,9-4.1,13.7-5.7,18-7.2,2.9,0,5.9-3.5,9.4-3.5s4.1-2,6.7-2,2.2.2,3.1.2,1-.2,1.2-.6c.4-.6,3.3-.8,5.9-.8s5.3,1.2,7.4,3.1c2.2,2,4.1,5.3,4.1,8.4s0,4.5-1.6,6.7c-1.2,2-3.1,4.1-5.1,4.1-1.6-.2-2-1.6-2-2.5s1.4-3.5,3.3-5.9c.2-.2.4-1,.4-1.8,0-1.8-.6-4.1-2-4.9-1.4-1.4-3.5-2-5.7-2s-1.4.2-2,.2c-2.7.6-4.5,1.4-9.8,3.7-4.9,2.3-7.8,5.3-11.9,7-4.3,2.2-10.4,7.6-12.1,10-2,2.5-2.7,2.5-6.1,8.4-3.7,6.3-3.9,6.8-4.5,10.2,0,.6-.2,1-.2,1.4,0,2.5,1.4,3.3,3.1,3.3s7.6-3.9,9.4-5.3c2.3-2.2,5.9-4.5,9-7.4,1.2-1.2,1.8-2.5,4.3-6.1,2.5-3.7,6.5-4.7,8.8-5.3,2.2-1,3.9-1.8,5.3-1.8s2.7,1.2,2.7,2.7,0,.8-.2,1.2c-.2.8-.2,1.6-.2,2.2,0,1.4.2,2.3.2,3.7s1.8,8.6,3.3,10.2c1.6,1.4,4.3,2.3,5.5,2.9.6.6,5.9,1,9.2,1s7.4-.4,8.6-1.2c2.3-1.4,4.7-.6,6.9-2,1-1,6.8-2.5,8-3.1,1.4-1,3.7-1.6,5.1-2.2,1.8-1,3.3-1.4,5.3-2.5.2-.4,2.3-1.4,3.3-2,.4-.4,1.4-.8,2.7-1,.6,0,1.2.2,1.6.6.8.4.8,1,.8,1.4-.2.6-1.2,1.4-1.8,2-2.2,1.4-4.3,2-6.5,3.1-2.7,1.6-5.5,2-8.8,4.1-1.2,1-3.3,1.6-4.7,1.8-2.7,1.2-4.5,1.2-5.1,1.8-1.2,1.6-7.8,2.5-10,3.5-2.3,1-10.4,1.6-14.1,1.8-1,.2-2,.2-3.1.2-3.7,0-8.2-.6-11-1.6-3.7-.8-6.1-2.7-7.4-4.5-2.5-3.1-4.7-6.1-4.9-6.1-.8,0-3.5,2.3-6.5,3.3-3.5,1.6-7.8,5.1-10.6,6.8-2,1.2-6.5,3.1-10.6,4.3-1.8.4-2.7.6-3.7.6s-2.3-.2-4.3-.8c-3.7,0-6.5-3.5-6.5-7.2s1.6-8.6,2.7-10.6c1.6-2,3.9-5.5,6.1-7.4,2.9-2.3,3.3-3.3,4.5-5.3,1-1.8,4.5-5.1,7.8-7.4-9.2,3.5-17.2,6.5-19.6,7.8-2.2,1.4-6.5,3.1-8.8,4.3-2,1-10,4.5-12.9,5.7l.3.3Z"/>
  </g>
  <g>
    <path class="cls-1" d="M11.6,185c.9.5,1.5,1.1,2,2s.7,1.8.7,3-.2,2.1-.7,2.9c-.5.8-1.2,1.5-2.1,2s-1.9.7-3.1.7H3.5s0,0,0,.1v8c0,.2,0,.3-.3.3H1c-.2,0-.3,0-.3-.3v-19.1c0-.2,0-.3.3-.3h7.6c1.1,0,2.1.2,3,.7h0ZM10.7,192.4c.6-.6.9-1.4.9-2.4s-.3-1.9-.9-2.5c-.6-.6-1.5-.9-2.5-.9H3.5s0,0,0,.1v6.6s0,.1,0,.1h4.7c1,0,1.9-.3,2.5-.9h0Z"/>
    <path class="cls-1" d="M46.6,203.3c-1-.5-1.8-1.3-2.4-2.3s-.9-2.1-.9-3.4v-13.1c0-.2,0-.3.3-.3h2.1c.2,0,.3,0,.3.3v13.2c0,1.2.4,2.2,1.2,2.9s1.8,1.1,3,1.1,2.3-.4,3-1.1c.8-.7,1.1-1.7,1.1-2.9v-13.2c0-.2,0-.3.3-.3h2.1c.2,0,.3,0,.3.3v13.1c0,1.3-.3,2.4-.9,3.4s-1.4,1.7-2.4,2.3c-1,.5-2.2.8-3.6.8s-2.6-.3-3.6-.8h.1Z"/>
    <path class="cls-1" d="M97.8,193.8c2,.8,3,2.4,3,4.7s-.6,3-1.7,4c-1.1.9-2.6,1.4-4.5,1.4h-7c-.2,0-.3,0-.3-.3v-19c0-.2,0-.3.3-.3h6.7c1.9,0,3.4.4,4.5,1.3,1.1.9,1.6,2.2,1.6,3.9s-.9,3.4-2.7,4.2v.2h0ZM90,186.7v5.9s0,.1,0,.1h4.2c1.1,0,1.9-.3,2.6-.8.6-.5.9-1.3.9-2.2s-.3-1.7-.9-2.3-1.5-.8-2.6-.8h-4.2s0,0,0,.1ZM97.1,200.7c.6-.6.9-1.4.9-2.4s-.3-1.8-1-2.4c-.6-.6-1.5-.9-2.6-.9h-4.4s0,0,0,.1v6.3s0,.1,0,.1h4.5c1.1,0,1.9-.3,2.5-.9h0Z"/>
    <path class="cls-1" d="M130.7,203.6v-19c0-.2,0-.3.3-.3h2.1c.2,0,.3,0,.3.3v16.9s0,.1.1.1h9.7c.2,0,.3,0,.3.3v1.8c0,.2,0,.3-.3.3h-12.2c-.2,0-.3,0-.3-.3h0Z"/>
    <path class="cls-1" d="M172.6,203.6v-19c0-.2,0-.3.3-.3h2.1c.2,0,.3,0,.3.3v19c0,.2,0,.3-.3.3h-2.1c-.2,0-.3,0-.3-.3Z"/>
    <path class="cls-1" d="M205.8,203.6v-19c0-.2,0-.3.3-.3h2.1c.2,0,.3,0,.3.3v8.9h0l8-9.1c0-.1.2-.2.3-.2h2.6v.2l-6.7,7.9v.2l7.1,10.9v.2c0,.1,0,.2-.2.2h-2.4c-.1,0-.2,0-.3-.2l-6-9.2h0l-2.4,2.6h0v6.4c0,.2,0,.3-.3.3h-2.1c-.2,0-.3,0-.3-.3v.2Z"/>
    <path class="cls-1" d="M260.6,203.7l-1-3.3h-8.1l-1,3.3c0,.1-.2.2-.3.2h-2.3c-.2,0-.3-.1-.2-.3l6.1-19.1c0-.1.2-.2.3-.2h2.8c.2,0,.3,0,.3.2l6.2,19.1h0c0,.2,0,.3-.3.3h-2.3c-.2,0-.3,0-.3-.2h0ZM252.2,198.1h6.4l-3.2-10.4h0l-3.2,10.4h0Z"/>
    <path class="cls-1" d="M294.8,203.4c-1-.5-1.8-1.3-2.4-2.3s-.9-2.1-.9-3.4v-7.3c0-1.3.3-2.4.9-3.3.6-1,1.4-1.7,2.4-2.2s2.2-.8,3.6-.8,2.5.3,3.6.8c1,.5,1.8,1.2,2.4,2.2.6.9.9,2,.9,3.2h0v.3c0,.1-.1,0-.2,0h-2.1c-.2.1-.3,0-.3-.1h0c0-1.3-.4-2.2-1.1-3-.7-.7-1.7-1.1-3-1.1s-2.3.4-3,1.1c-.8.7-1.1,1.7-1.1,2.9v7.4c0,1.2.4,2.2,1.1,2.9s1.8,1.1,3,1.1,2.3-.4,3-1.1c.7-.7,1.1-1.7,1.1-2.9h0c0-.2,0-.3.3-.3h2.1c.2.1.3.2.3.4,0,1.2-.3,2.3-.9,3.3-.6.9-1.4,1.7-2.4,2.2s-2.2.8-3.6.8-2.5-.3-3.6-.8h0Z"/>
    <path class="cls-1" d="M336.5,203.4c-1-.5-1.8-1.2-2.3-2.1-.5-.9-.8-2-.8-3.2v-2c0-.2,0-.3.3-.3h2.1c.2,0,.3,0,.3.3v2c0,1.1.4,2,1.1,2.7s1.7,1,2.9,1,2.1-.3,2.8-1c.7-.7,1.1-1.6,1.1-2.7v-13.5c0-.2,0-.3.3-.3h2.1c.2,0,.3,0,.3.3v13.5c0,1.2-.3,2.3-.8,3.2-.6.9-1.3,1.6-2.3,2.1s-2.2.8-3.4.8-2.5-.3-3.5-.8h-.2Z"/>
    <path class="cls-1" d="M389.8,186.6h-9.9s-.1,0-.1.1v6s0,.1.1.1h6.8c.2,0,.3,0,.3.3v1.8c0,.2,0,.3-.3.3h-6.8s-.1,0-.1.1v6.2s0,.1.1.1h9.9c.2,0,.3,0,.3.3v1.8c0,.2,0,.3-.3.3h-12.5c-.2,0-.3,0-.3-.3v-19c0-.2,0-.3.3-.3h12.5c.2,0,.3,0,.3.3v1.8c0,.2,0,.3-.3.3v-.2Z"/>
  </g>
</svg>